<?xml version="1.0" encoding="utf-8"?>
<!-- Generator: Adobe Illustrator 15.0.0, SVG Export Plug-In . SVG Version: 6.00 Build 0)  -->
<!DOCTYPE svg PUBLIC "-//W3C//DTD SVG 1.1//EN" "http://www.w3.org/Graphics/SVG/1.1/DTD/svg11.dtd">
<svg version="1.1"  xmlns="http://www.w3.org/2000/svg" xmlns:xlink="http://www.w3.org/1999/xlink" x="0px" y="0px"
	 width="48px" height="48px" viewBox="0 0 48 48" enable-background="new 0 0 48 48" xml:space="preserve">
<path fill="#A3270A" d="M9.471,39h16.197l-3.827-24.284c-0.25-1.591-1.722-2.604-3.295-2.355L8.447,13.951
	c-1.573,0.248-2.662,1.665-2.411,3.256L9.471,39z"/>
<g>
	
		<rect x="9.312" y="16.563" transform="matrix(-0.9878 0.1558 -0.1558 -0.9878 25.3771 35.1362)" fill="#FFC107" width="4" height="4"/>
	
		<rect x="15.239" y="15.628" transform="matrix(-0.9878 0.1558 -0.1558 -0.9878 37.0124 32.3556)" fill="#FFC107" width="4" height="4"/>
	
		<rect x="10.246" y="22.489" transform="matrix(-0.9878 0.1555 -0.1555 -0.9878 28.1517 46.7747)" fill="#FFC107" width="3.999" height="4"/>
	
		<rect x="16.173" y="21.555" transform="matrix(-0.9878 0.1558 -0.1558 -0.9878 39.7923 43.9913)" fill="#FFC107" width="4" height="4"/>
	
		<rect x="11.18" y="28.416" transform="matrix(-0.9878 0.1555 -0.1555 -0.9878 30.9293 58.4112)" fill="#FFC107" width="4" height="4"/>
</g>
<path fill="#C5CAE9" d="M39.832,41.369L16,39.722l2.286-33.081c0.111-1.607,1.488-2.744,3.078-2.634l18.068,1.249
	c1.59,0.109,2.797,1.425,2.686,3.031L39.832,41.369z"/>
<g>
	
		<rect x="21.467" y="16.221" transform="matrix(-0.9976 -0.0689 0.0689 -0.9976 46.5862 39.0503)" fill="#5E35B1" width="5" height="5"/>
	
		<rect x="32.44" y="16.979" transform="matrix(-0.9976 -0.0689 0.0689 -0.9976 68.4548 41.3205)" fill="#5E35B1" width="5" height="5"/>
	
		<rect x="22.018" y="8.24" transform="matrix(-0.9976 -0.0689 0.0689 -0.9976 48.2379 23.1441)" fill="#5E35B1" width="5.001" height="5"/>
	
		<rect x="32.992" y="8.998" transform="matrix(-0.9976 -0.0689 0.0689 -0.9976 70.1072 25.4166)" fill="#5E35B1" width="5" height="5"/>
	
		<rect x="20.915" y="24.202" transform="matrix(-0.9976 -0.0689 0.0689 -0.9976 44.9328 54.9542)" fill="#5E35B1" width="5" height="5"/>
	
		<rect x="31.89" y="24.96" transform="matrix(-0.9976 -0.069 0.069 -0.9976 66.8029 57.2269)" fill="#5E35B1" width="4.999" height="5"/>
</g>
<polygon fill="#4CAF50" points="42,36 30,32 6,36 6,44 42,44 "/>
<polygon fill="#263238" points="26,42 22.335,44 33.731,44 38,41 26.929,39.069 34.688,35.572 27.584,34.001 30,32 29,23.001 
	27,32.001 22,35 28,36 18.173,40.205 "/>
</svg>
